[img]http://img204.imageshack.us/img204/7916/jedgarthelaan.jpg[/img]
[code]
Imdb: 
http://www.imdb.com/title/tt1616195/

Plot: As the face of law enforcement in America for almost 50 years, J. Edgar Hoover was feared and admired, reviled and revered. But behind closed doors, he held secrets that would have destroyed his image, his career and his life.

Source:
FYA

Notes:
Encoded video and added few filters so enjoy :)
Encoded by LoGiCurL

Greetz

Goes out to the people next door you know what i mean haha :D and to to the punjabi squad :P



Format                                   : AVI
Format/Info                              : Audio Video Interleave
File size                                : 1.84 GiB
Duration                                 : 2h 1mn
Overall bit rate                         : 2 168 Kbps

Video
ID                                       : 0
Format                                   : MPEG-4 Visual
Format profile                           : Advanced Simple@L5
Format settings, BVOP                    : 2
Format settings, QPel                    : No
Format settings, GMC                     : No warppoints
Format settings, Matrix                  : Default (H.263)
Codec ID                                 : XVID
Codec ID/Hint                            : XviD
Duration                                 : 2h 1mn
Bit rate                                 : 1 900 Kbps
Width                                    : 720 pixels
Height                                   : 304 pixels
Display aspect ratio                     : 2.35:1
Frame rate                               : 24.000 fps
Color space                              : YUV
Chroma subsampling                       : 4:2:0
Bit depth                                : 8 bits
Scan type                                : Progressive
Compression mode                         : Lossy
Bits/(Pixel*Frame)                       : 0.362
Stream size                              : 1.61 GiB (88%)
Writing library                          : XviD 63

Audio
ID                                       : 1
Format                                   : MPEG Audio
Format version                           : Version 1
Format profile                           : Layer 3
Mode                                     : Joint stereo
Mode extension                           : MS Stereo
Codec ID                                 : 55
Codec ID/Hint                            : MP3
Duration                                 : 2h 1mn
Bit rate mode                            : Constant
Bit rate                                 : 256 Kbps
Channel(s)                               : 2 channels
Sampling rate                            : 44.1 KHz
Compression mode                         : Lossy
Stream size                              : 223 MiB (12%)
Alignment                                : Split accross 

[/code]
Screens:
[img]http://img267.imageshack.us/img267/7051/vlcsnap2011112801h01m56.png[/img]
[img]http://img851.imageshack.us/img851/2503/vlcsnap2011112801h02m07.png[/img]
[img]http://img88.imageshack.us/img88/948/vlcsnap2011112801h02m10.png[/img]
[img]http://img638.imageshack.us/img638/223/vlcsnap2011112801h02m15.png[/img]
[img]http://img189.imageshack.us/img189/2933/vlcsnap2011112801h02m18.png[/img]
[img]http://img843.imageshack.us/img843/9906/vlcsnap2011112801h02m21.png[/img]